<svg width="155" height="83" viewBox="0 0 155 83" fill="none" xmlns="http://www.w3.org/2000/svg">
<path d="M13.267 51.8381L13.2855 42.402H14.4304L23.5156 31.6364H32.5455L20.3395 45.892H18.4744L13.267 51.8381ZM6.1392 60V22.1818H14.0057V60H6.1392ZM23.8665 60L15.5199 47.6463L20.7642 42.0881L33.081 60H23.8665Z" fill="#E7E5DF"/>
<path d="M67 63.5C79.1503 63.5 89 53.6503 89 41.5C89 29.3497 79.1503 19.5 67 19.5C54.8497 19.5 45 29.3497 45 41.5C45 53.6503 54.8497 63.5 67 63.5Z" stroke="#E7E5DF" stroke-width="14"/>
<path d="M67 19.5C70.8619 19.4996 74.6559 20.5157 78.0006 22.4463C81.3453 24.3769 84.1229 27.154 86.0542 30.4983C87.9854 33.8427 89.0023 37.6365 89.0026 41.4984C89.0028 45.3603 87.9865 49.1543 86.0558 52.4989C84.125 55.8435 81.3478 58.621 78.0034 60.5521C74.659 62.4832 70.8651 63.4999 67.0032 63.5C63.1413 63.5001 59.3474 62.4836 56.0028 60.5527C52.6583 58.6218 49.881 55.8445 47.95 52.5" stroke="#C98A5E" stroke-width="14"/>
<path d="M103.142 60V31.6364H110.768V36.5852H111.064C111.581 34.8248 112.449 33.4953 113.667 32.5966C114.886 31.6856 116.289 31.2301 117.878 31.2301C118.272 31.2301 118.696 31.2547 119.152 31.304C119.607 31.3532 120.007 31.4209 120.352 31.5071V38.4872C119.983 38.3764 119.472 38.2779 118.819 38.1918C118.167 38.1056 117.57 38.0625 117.028 38.0625C115.871 38.0625 114.837 38.3149 113.926 38.8196C113.027 39.312 112.313 40.0014 111.784 40.8878C111.267 41.7741 111.008 42.7959 111.008 43.9531V60H103.142ZM136.025 60.554C133.107 60.554 130.596 59.9631 128.491 58.7812C126.398 57.5871 124.785 55.9006 123.653 53.7216C122.52 51.5303 121.954 48.9389 121.954 45.9474C121.954 43.0298 122.52 40.4692 123.653 38.2656C124.785 36.062 126.38 34.3447 128.435 33.1136C130.504 31.8826 132.929 31.267 135.711 31.267C137.582 31.267 139.324 31.5687 140.937 32.1719C142.562 32.7628 143.978 33.6553 145.184 34.8494C146.403 36.0436 147.351 37.5455 148.028 39.3551C148.705 41.1525 149.043 43.2576 149.043 45.6705V47.831H125.093V42.956H141.639C141.639 41.8234 141.392 40.8201 140.9 39.946C140.408 39.072 139.724 38.3887 138.85 37.8963C137.988 37.3916 136.985 37.1392 135.84 37.1392C134.646 37.1392 133.587 37.4162 132.664 37.9702C131.753 38.5118 131.039 39.2443 130.522 40.1676C130.005 41.0786 129.74 42.0942 129.728 43.2145V47.8494C129.728 49.2528 129.987 50.4654 130.504 51.4872C131.033 52.509 131.778 53.2969 132.738 53.8509C133.698 54.4048 134.837 54.6818 136.154 54.6818C137.028 54.6818 137.828 54.5587 138.555 54.3125C139.281 54.0663 139.903 53.697 140.42 53.2045C140.937 52.7121 141.331 52.1089 141.602 51.3949L148.877 51.875C148.508 53.6231 147.751 55.1496 146.606 56.4545C145.473 57.7472 144.008 58.7566 142.211 59.483C140.426 60.197 138.364 60.554 136.025 60.554Z" fill="#E7E5DF"/>
</svg>
