<svg width="260" height="90" viewBox="0 0 260 90" fill="none" xmlns="http://www.w3.org/2000/svg">
<rect width="260" height="90" fill="#1E1E1E"/>
<path d="M13.267 51.8381L13.2855 42.402H14.4304L23.5156 31.6364H32.5455L20.3395 45.892H18.4744L13.267 51.8381ZM6.1392 60V22.1818H14.0057V60H6.1392ZM23.8665 60L15.5199 47.6463L20.7642 42.0881L33.081 60H23.8665Z" fill="#14151A"/>
<path d="M67 66C79.1503 66 89 56.1503 89 44C89 31.8497 79.1503 22 67 22C54.8497 22 45 31.8497 45 44C45 56.1503 54.8497 66 67 66Z" stroke="#E7E5DF" stroke-width="14"/>
<path d="M67 22C70.8619 21.9996 74.6559 23.0157 78.0006 24.9463C81.3453 26.8769 84.1229 29.654 86.0542 32.9983C87.9854 36.3427 89.0023 40.1365 89.0026 43.9984C89.0028 47.8603 87.9865 51.6543 86.0558 54.9989C84.125 58.3435 81.3478 61.121 78.0034 63.0521C74.659 64.9832 70.8651 65.9999 67.0032 66C63.1413 66.0001 59.3474 64.9836 56.0028 63.0527C52.6583 61.1218 49.881 58.3445 47.95 55" stroke="#C98A5E" stroke-width="14"/>
<path d="M103.139 60V31.6364H110.766V36.5852H111.061C111.578 34.8248 112.446 33.4953 113.665 32.5966C114.884 31.6856 116.287 31.2301 117.875 31.2301C118.269 31.2301 118.694 31.2547 119.149 31.304C119.605 31.3532 120.005 31.4209 120.349 31.5071V38.4872C119.98 38.3764 119.469 38.2779 118.817 38.1918C118.164 38.1056 117.567 38.0625 117.026 38.0625C115.868 38.0625 114.834 38.3149 113.923 38.8196C113.025 39.312 112.311 40.0014 111.781 40.8878C111.264 41.7741 111.006 42.7959 111.006 43.9531V60H103.139ZM136.022 60.554C133.105 60.554 130.593 59.9631 128.488 58.7812C126.395 57.5871 124.783 55.9006 123.65 53.7216C122.518 51.5303 121.951 48.9389 121.951 45.9474C121.951 43.0298 122.518 40.4692 123.65 38.2656C124.783 36.062 126.377 34.3447 128.433 33.1136C130.501 31.8826 132.926 31.267 135.708 31.267C137.58 31.267 139.322 31.5687 140.934 32.1719C142.559 32.7628 143.975 33.6553 145.181 34.8494C146.4 36.0436 147.348 37.5455 148.025 39.3551C148.702 41.1525 149.041 43.2576 149.041 45.6705V47.831H125.091V42.956H141.636C141.636 41.8234 141.39 40.8201 140.897 39.946C140.405 39.072 139.722 38.3887 138.848 37.8963C137.986 37.3916 136.983 37.1392 135.838 37.1392C134.644 37.1392 133.585 37.4162 132.662 37.9702C131.751 38.5118 131.037 39.2443 130.52 40.1676C130.002 41.0786 129.738 42.0942 129.725 43.2145V47.8494C129.725 49.2528 129.984 50.4654 130.501 51.4872C131.03 52.509 131.775 53.2969 132.735 53.8509C133.696 54.4048 134.834 54.6818 136.152 54.6818C137.026 54.6818 137.826 54.5587 138.552 54.3125C139.279 54.0663 139.9 53.697 140.417 53.2045C140.934 52.7121 141.328 52.1089 141.599 51.3949L148.875 51.875C148.505 53.6231 147.748 55.1496 146.603 56.4545C145.471 57.7472 144.006 58.7566 142.208 59.483C140.423 60.197 138.361 60.554 136.022 60.554Z" fill="#14151A"/>
</svg>
